<svg width="12" height="13" viewBox="0 0 12 13" fill="none" xmlns="http://www.w3.org/2000/svg">
<g clip-path="url(#clip0_4337_56364)">
<path d="M7.93512 8.12507L6.25012 7.12507V4.86007C6.25012 4.66007 6.09012 4.50007 5.89012 4.50007H5.86013C5.66013 4.50007 5.50012 4.66007 5.50012 4.86007V7.22007C5.50012 7.39507 5.59012 7.56007 5.74512 7.65007L7.57013 8.74507C7.74013 8.84507 7.96013 8.79507 8.06013 8.62507C8.16513 8.45007 8.11013 8.22507 7.93512 8.12507ZM10.5901 3.00507L9.05013 1.72507C8.84013 1.55007 8.52513 1.57507 8.34513 1.79007C8.17013 2.00007 8.20012 2.31507 8.41012 2.49507L9.94512 3.77507C10.1551 3.95007 10.4701 3.92507 10.6501 3.71007C10.8301 3.50007 10.8001 3.18507 10.5901 3.00507ZM2.05012 3.77507L3.58512 2.49507C3.80012 2.31507 3.83013 2.00007 3.65013 1.79007C3.47513 1.57507 3.16013 1.55007 2.95012 1.72507L1.41012 3.00507C1.20012 3.18507 1.17013 3.50007 1.35013 3.71007C1.52512 3.92507 1.84012 3.95007 2.05012 3.77507ZM6.00012 2.50007C3.51513 2.50007 1.50012 4.51507 1.50012 7.00007C1.50012 9.48507 3.51513 11.5001 6.00012 11.5001C8.48512 11.5001 10.5001 9.48507 10.5001 7.00007C10.5001 4.51507 8.48512 2.50007 6.00012 2.50007ZM6.00012 10.5001C4.07013 10.5001 2.50012 8.93007 2.50012 7.00007C2.50012 5.07007 4.07013 3.50007 6.00012 3.50007C7.93012 3.50007 9.50012 5.07007 9.50012 7.00007C9.50012 8.93007 7.93012 10.5001 6.00012 10.5001Z" fill="#828282"/>
</g>
<defs>
<clipPath id="clip0_4337_56364">
<rect width="12" height="12" fill="white" transform="translate(0 0.5)"/>
</clipPath>
</defs>
</svg>
