<svg width="52" height="52" viewBox="0 0 52 52" fill="none" xmlns="http://www.w3.org/2000/svg">
<rect width="52" height="52" rx="26" fill="white"/>
<path d="M8.88 30V22.55H12.01C12.43 22.55 12.7933 22.63 13.1 22.79C13.4133 22.9433 13.6533 23.16 13.82 23.44C13.9933 23.72 14.08 24.0467 14.08 24.42C14.08 24.8067 13.9833 25.15 13.79 25.45C13.6033 25.7433 13.3333 25.9667 12.98 26.12L12.97 25.88C13.2633 25.9867 13.5133 26.1367 13.72 26.33C13.9333 26.5233 14.0967 26.75 14.21 27.01C14.3233 27.2633 14.38 27.5367 14.38 27.83C14.38 28.4967 14.1667 29.0267 13.74 29.42C13.32 29.8067 12.7467 30 12.02 30H8.88ZM9.68 29.25H12.02C12.4933 29.25 12.87 29.1267 13.15 28.88C13.4367 28.6267 13.58 28.28 13.58 27.84C13.58 27.4067 13.4367 27.0633 13.15 26.81C12.87 26.55 12.4933 26.42 12.02 26.42H9.68V29.25ZM9.68 25.7H11.95C12.35 25.7 12.67 25.5833 12.91 25.35C13.1567 25.1167 13.28 24.8167 13.28 24.45C13.28 24.0767 13.1567 23.7933 12.91 23.6C12.67 23.4 12.35 23.3 11.95 23.3H9.68V25.7ZM17.2536 30.12C16.9136 30.12 16.6103 30.0567 16.3436 29.93C16.0769 29.7967 15.8669 29.6167 15.7136 29.39C15.5603 29.1633 15.4836 28.9033 15.4836 28.61C15.4836 28.33 15.5436 28.0767 15.6636 27.85C15.7836 27.6167 15.9703 27.42 16.2236 27.26C16.4769 27.1 16.8003 26.9867 17.1936 26.92L19.2936 26.57V27.25L17.3736 27.57C16.9869 27.6367 16.7069 27.76 16.5336 27.94C16.3669 28.12 16.2836 28.3333 16.2836 28.58C16.2836 28.82 16.3769 29.0233 16.5636 29.19C16.7569 29.3567 17.0036 29.44 17.3036 29.44C17.6703 29.44 17.9903 29.3633 18.2636 29.21C18.5369 29.05 18.7503 28.8367 18.9036 28.57C19.0569 28.3033 19.1336 28.0067 19.1336 27.68V26.32C19.1336 26 19.0169 25.74 18.7836 25.54C18.5503 25.34 18.2469 25.24 17.8736 25.24C17.5469 25.24 17.2603 25.3233 17.0136 25.49C16.7669 25.65 16.5836 25.86 16.4636 26.12L15.7836 25.75C15.8836 25.5233 16.0403 25.3167 16.2536 25.13C16.4736 24.9433 16.7236 24.7967 17.0036 24.69C17.2836 24.5767 17.5736 24.52 17.8736 24.52C18.2669 24.52 18.6136 24.5967 18.9136 24.75C19.2203 24.9033 19.4569 25.1167 19.6236 25.39C19.7969 25.6567 19.8836 25.9667 19.8836 26.32V30H19.1336V28.93L19.2436 29.04C19.1503 29.24 19.0036 29.4233 18.8036 29.59C18.6103 29.75 18.3803 29.88 18.1136 29.98C17.8536 30.0733 17.5669 30.12 17.2536 30.12ZM23.3786 30.06C22.8986 30.06 22.5286 29.92 22.2686 29.64C22.0086 29.36 21.8786 28.96 21.8786 28.44V25.39H20.8886V24.64H21.1386C21.3653 24.64 21.5453 24.5667 21.6786 24.42C21.8119 24.2667 21.8786 24.0767 21.8786 23.85V23.4H22.6286V24.64H23.8086V25.39H22.6286V28.44C22.6286 28.62 22.6553 28.78 22.7086 28.92C22.7619 29.0533 22.8519 29.16 22.9786 29.24C23.1119 29.32 23.2886 29.36 23.5086 29.36C23.5619 29.36 23.6253 29.3567 23.6986 29.35C23.7719 29.3433 23.8353 29.3367 23.8886 29.33V30C23.8086 30.02 23.7186 30.0333 23.6186 30.04C23.5186 30.0533 23.4386 30.06 23.3786 30.06ZM27.4502 30.12C26.9502 30.12 26.4969 30 26.0902 29.76C25.6902 29.5133 25.3736 29.1767 25.1402 28.75C24.9069 28.3233 24.7902 27.84 24.7902 27.3C24.7902 26.76 24.9036 26.2833 25.1302 25.87C25.3569 25.45 25.6636 25.12 26.0502 24.88C26.4436 24.64 26.8836 24.52 27.3702 24.52C27.7569 24.52 28.1002 24.5933 28.4002 24.74C28.7069 24.88 28.9669 25.0733 29.1802 25.32C29.3936 25.56 29.5569 25.8333 29.6702 26.14C29.7836 26.44 29.8402 26.75 29.8402 27.07C29.8402 27.1367 29.8369 27.2133 29.8302 27.3C29.8236 27.38 29.8136 27.4633 29.8002 27.55H25.2702V26.85H29.3702L29.0102 27.15C29.0702 26.7833 29.0269 26.4567 28.8802 26.17C28.7402 25.8767 28.5369 25.6467 28.2702 25.48C28.0036 25.3067 27.7036 25.22 27.3702 25.22C27.0369 25.22 26.7269 25.3067 26.4402 25.48C26.1602 25.6533 25.9402 25.8967 25.7802 26.21C25.6202 26.5167 25.5569 26.8833 25.5902 27.31C25.5569 27.7367 25.6236 28.11 25.7902 28.43C25.9636 28.7433 26.1969 28.9867 26.4902 29.16C26.7902 29.3333 27.1102 29.42 27.4502 29.42C27.8436 29.42 28.1736 29.3267 28.4402 29.14C28.7069 28.9533 28.9236 28.72 29.0902 28.44L29.7302 28.78C29.6236 29.02 29.4602 29.2433 29.2402 29.45C29.0202 29.65 28.7569 29.8133 28.4502 29.94C28.1502 30.06 27.8169 30.12 27.4502 30.12ZM33.6026 30.12C33.1026 30.12 32.6492 30 32.2426 29.76C31.8426 29.5133 31.5259 29.1767 31.2926 28.75C31.0592 28.3233 30.9426 27.84 30.9426 27.3C30.9426 26.76 31.0559 26.2833 31.2826 25.87C31.5092 25.45 31.8159 25.12 32.2026 24.88C32.5959 24.64 33.0359 24.52 33.5226 24.52C33.9092 24.52 34.2526 24.5933 34.5526 24.74C34.8592 24.88 35.1192 25.0733 35.3326 25.32C35.5459 25.56 35.7092 25.8333 35.8226 26.14C35.9359 26.44 35.9926 26.75 35.9926 27.07C35.9926 27.1367 35.9892 27.2133 35.9826 27.3C35.9759 27.38 35.9659 27.4633 35.9526 27.55H31.4226V26.85H35.5226L35.1626 27.15C35.2226 26.7833 35.1792 26.4567 35.0326 26.17C34.8926 25.8767 34.6892 25.6467 34.4226 25.48C34.1559 25.3067 33.8559 25.22 33.5226 25.22C33.1892 25.22 32.8792 25.3067 32.5926 25.48C32.3126 25.6533 32.0926 25.8967 31.9326 26.21C31.7726 26.5167 31.7092 26.8833 31.7426 27.31C31.7092 27.7367 31.7759 28.11 31.9426 28.43C32.1159 28.7433 32.3492 28.9867 32.6426 29.16C32.9426 29.3333 33.2626 29.42 33.6026 29.42C33.9959 29.42 34.3259 29.3267 34.5926 29.14C34.8592 28.9533 35.0759 28.72 35.2426 28.44L35.8826 28.78C35.7759 29.02 35.6126 29.2433 35.3926 29.45C35.1726 29.65 34.9092 29.8133 34.6026 29.94C34.3026 30.06 33.9692 30.12 33.6026 30.12ZM41.6949 32V28.8L41.8149 28.91C41.6283 29.2967 41.3483 29.5967 40.9749 29.81C40.6083 30.0167 40.1949 30.12 39.7349 30.12C39.2349 30.12 38.7849 30 38.3849 29.76C37.9849 29.5133 37.6683 29.18 37.4349 28.76C37.2083 28.3333 37.0949 27.8533 37.0949 27.32C37.0949 26.78 37.2083 26.3 37.4349 25.88C37.6683 25.46 37.9816 25.13 38.3749 24.89C38.7749 24.6433 39.2283 24.52 39.7349 24.52C40.1949 24.52 40.6049 24.62 40.9649 24.82C41.3249 25.02 41.6083 25.29 41.8149 25.63L41.6949 25.84V24.64H42.4449V32H41.6949ZM39.7749 29.37C40.1349 29.37 40.4583 29.28 40.7449 29.1C41.0383 28.92 41.2683 28.6767 41.4349 28.37C41.6083 28.0567 41.6949 27.7067 41.6949 27.32C41.6949 26.9333 41.6083 26.5867 41.4349 26.28C41.2683 25.9667 41.0383 25.72 40.7449 25.54C40.4583 25.36 40.1349 25.27 39.7749 25.27C39.4216 25.27 39.1016 25.36 38.8149 25.54C38.5283 25.72 38.3016 25.9633 38.1349 26.27C37.9749 26.5767 37.8949 26.9267 37.8949 27.32C37.8949 27.7067 37.9749 28.0567 38.1349 28.37C38.3016 28.6767 38.5249 28.92 38.8049 29.1C39.0916 29.28 39.4149 29.37 39.7749 29.37Z" fill="#F3B502"/>
</svg>
