<svg width="52" height="52" viewBox="0 0 52 52" fill="none" xmlns="http://www.w3.org/2000/svg">
<rect width="52" height="52" rx="26" fill="#1A1A1A"/>
<rect width="52" height="52" rx="26" fill="black" fill-opacity="0.2"/>
<rect width="52" height="52" rx="26" fill="black" fill-opacity="0.2"/>
<rect width="52" height="52" rx="26" fill="black" fill-opacity="0.2"/>
<rect width="52" height="52" rx="26" fill="black" fill-opacity="0.2"/>
<rect width="52" height="52" rx="26" fill="black" fill-opacity="0.2"/>
<path d="M22.048 9.77748C21.7337 9.98396 21.4721 10.2618 21.2841 10.5885C21.096 10.9152 20.9869 11.2818 20.9653 11.6587V13.801C20.9869 14.1779 21.096 14.5444 21.2841 14.8712C21.4721 15.1979 21.7337 15.4757 22.048 15.6822L24.288 17.01C24.8821 17.3553 25.3706 17.072 25.3706 16.3815V9.12238C25.3706 8.43188 24.8821 8.14862 24.288 8.49387L22.048 9.77748Z" fill="white"/>
<path d="M21.8147 16.1462C21.4894 15.9833 21.13 15.8984 20.7656 15.8984C20.4011 15.8984 20.0417 15.9833 19.7165 16.1462L17.926 17.1621C17.6209 17.3596 17.3668 17.6252 17.1842 17.9376C17.0017 18.2501 16.8956 18.6006 16.8748 18.961V21.4499C16.8748 22.1102 17.3491 22.3811 17.926 22.051L23.994 18.5801C24.5709 18.2499 24.5709 17.7124 23.994 17.3822L21.8147 16.1462Z" fill="white"/>
<path d="M29.9521 9.77748C30.2663 9.98396 30.5279 10.2618 30.716 10.5885C30.904 10.9152 31.0132 11.2818 31.0347 11.6587V13.801C31.0132 14.1779 30.904 14.5444 30.716 14.8712C30.5279 15.1979 30.2663 15.4757 29.9521 15.6822L27.7076 17.01C27.1135 17.3553 26.6294 17.072 26.6294 16.3815V9.12238C26.6294 8.43188 27.1135 8.14862 27.7076 8.49387L29.9521 9.77748Z" fill="white"/>
<path d="M29.9812 16.1462C30.3202 15.9833 30.6947 15.8984 31.0746 15.8984C31.4545 15.8984 31.829 15.9833 32.168 16.1462L34.0342 17.1621C34.3516 17.3598 34.6157 17.6256 34.8053 17.9381C34.9948 18.2505 35.1044 18.6009 35.1254 18.961V21.4499C35.1254 22.1102 34.6354 22.3811 34.0342 22.051L27.7098 18.5801C27.1085 18.2499 27.1085 17.7124 27.7098 17.3822L29.9812 16.1462Z" fill="white"/>
<path d="M20.7468 25.4052C21.0723 25.5679 21.4318 25.6526 21.7965 25.6526C22.1612 25.6526 22.5207 25.5679 22.8462 25.4052L24.6377 24.3864C24.9425 24.1881 25.196 23.9219 25.378 23.6092C25.5599 23.2964 25.6651 22.9459 25.6852 22.5857V20.1002C25.6852 19.4407 25.2149 19.1702 24.6377 19.4999L18.5662 22.9661C17.989 23.2958 17.989 23.8327 18.5662 24.1624L20.7468 25.4052Z" fill="white"/>
<path d="M26 22.5878C26.0213 22.9471 26.1311 23.2967 26.3206 23.6084C26.5101 23.9202 26.774 24.1855 27.0912 24.3831L28.9574 25.4053C29.2963 25.5679 29.6709 25.6526 30.0508 25.6526C30.4306 25.6526 30.8052 25.5679 31.1442 25.4053L33.4156 24.1592C34.0169 23.8297 34.0169 23.2932 33.4156 22.9637L27.0912 19.4998C26.4899 19.1704 26 19.4407 26 20.0997V22.5878Z" fill="white"/>
<path d="M9.98 38.7733C9.52 38.7733 9.10333 38.67 8.73 38.4633C8.36333 38.25 8.08667 37.95 7.9 37.5633L8.02 37.4533V38.6533H7.27V31.0833H8.02V34.4933L7.9 34.2833C8.11333 33.9433 8.39667 33.6733 8.75 33.4733C9.11 33.2733 9.52 33.1733 9.98 33.1733C10.4867 33.1733 10.9367 33.2967 11.33 33.5433C11.73 33.7833 12.0433 34.1133 12.27 34.5333C12.5033 34.9533 12.62 35.4333 12.62 35.9733C12.62 36.5067 12.5033 36.9867 12.27 37.4133C12.0433 37.8333 11.73 38.1667 11.33 38.4133C10.9367 38.6533 10.4867 38.7733 9.98 38.7733ZM9.94 38.0233C10.3 38.0233 10.62 37.9333 10.9 37.7533C11.1867 37.5733 11.41 37.33 11.57 37.0233C11.7367 36.71 11.82 36.36 11.82 35.9733C11.82 35.58 11.7367 35.23 11.57 34.9233C11.41 34.6167 11.1867 34.3733 10.9 34.1933C10.62 34.0133 10.3 33.9233 9.94 33.9233C9.58 33.9233 9.25333 34.0133 8.96 34.1933C8.67333 34.3733 8.44333 34.62 8.27 34.9333C8.10333 35.24 8.02 35.5867 8.02 35.9733C8.02 36.36 8.10333 36.71 8.27 37.0233C8.44333 37.33 8.67333 37.5733 8.96 37.7533C9.25333 37.9333 9.58 38.0233 9.94 38.0233ZM16.3799 38.7733C15.8799 38.7733 15.4266 38.6533 15.0199 38.4133C14.6199 38.1667 14.3033 37.83 14.0699 37.4033C13.8366 36.9767 13.7199 36.4933 13.7199 35.9533C13.7199 35.4133 13.8333 34.9367 14.0599 34.5233C14.2866 34.1033 14.5933 33.7733 14.9799 33.5333C15.3733 33.2933 15.8133 33.1733 16.2999 33.1733C16.6866 33.1733 17.0299 33.2467 17.3299 33.3933C17.6366 33.5333 17.8966 33.7267 18.1099 33.9733C18.3233 34.2133 18.4866 34.4867 18.5999 34.7933C18.7133 35.0933 18.7699 35.4033 18.7699 35.7233C18.7699 35.79 18.7666 35.8667 18.7599 35.9533C18.7533 36.0333 18.7433 36.1167 18.7299 36.2033H14.1999V35.5033H18.2999L17.9399 35.8033C17.9999 35.4367 17.9566 35.11 17.8099 34.8233C17.6699 34.53 17.4666 34.3 17.1999 34.1333C16.9333 33.96 16.6333 33.8733 16.2999 33.8733C15.9666 33.8733 15.6566 33.96 15.3699 34.1333C15.0899 34.3067 14.8699 34.55 14.7099 34.8633C14.5499 35.17 14.4866 35.5367 14.5199 35.9633C14.4866 36.39 14.5533 36.7633 14.7199 37.0833C14.8933 37.3967 15.1266 37.64 15.4199 37.8133C15.7199 37.9867 16.0399 38.0733 16.3799 38.0733C16.7733 38.0733 17.1033 37.98 17.3699 37.7933C17.6366 37.6067 17.8533 37.3733 18.0199 37.0933L18.6599 37.4333C18.5533 37.6733 18.3899 37.8967 18.1699 38.1033C17.9499 38.3033 17.6866 38.4667 17.3799 38.5933C17.0799 38.7133 16.7466 38.7733 16.3799 38.7733ZM20.2023 40.8533C20.0956 40.8533 19.9856 40.8433 19.8723 40.8233C19.7656 40.81 19.6589 40.7833 19.5523 40.7433V40.0433C19.6189 40.05 19.7023 40.06 19.8023 40.0733C19.9089 40.0933 20.0156 40.1033 20.1223 40.1033C20.4489 40.1033 20.6989 40.0333 20.8723 39.8933C21.0456 39.76 21.2156 39.5 21.3823 39.1133L21.7223 38.3133L21.7023 38.9733L19.4323 33.2933H20.2423L22.1023 37.9833H21.8923L23.7423 33.2933H24.5723L22.1223 39.3333C22.0156 39.5933 21.8789 39.84 21.7123 40.0733C21.5523 40.3067 21.3489 40.4933 21.1023 40.6333C20.8556 40.78 20.5556 40.8533 20.2023 40.8533ZM27.8659 38.7733C27.3593 38.7733 26.8993 38.6533 26.4859 38.4133C26.0726 38.1667 25.7426 37.8333 25.4959 37.4133C25.2559 36.9867 25.1359 36.5033 25.1359 35.9633C25.1359 35.43 25.2559 34.9533 25.4959 34.5333C25.7359 34.1133 26.0593 33.7833 26.4659 33.5433C26.8793 33.2967 27.3459 33.1733 27.8659 33.1733C28.3859 33.1733 28.8493 33.2933 29.2559 33.5333C29.6693 33.7733 29.9926 34.1033 30.2259 34.5233C30.4659 34.9433 30.5859 35.4233 30.5859 35.9633C30.5859 36.51 30.4626 36.9967 30.2159 37.4233C29.9693 37.8433 29.6393 38.1733 29.2259 38.4133C28.8193 38.6533 28.3659 38.7733 27.8659 38.7733ZM27.8659 38.0233C28.2259 38.0233 28.5493 37.9333 28.8359 37.7533C29.1293 37.5733 29.3593 37.3267 29.5259 37.0133C29.6993 36.7 29.7859 36.35 29.7859 35.9633C29.7859 35.5767 29.6993 35.23 29.5259 34.9233C29.3593 34.6167 29.1293 34.3733 28.8359 34.1933C28.5493 34.0133 28.2259 33.9233 27.8659 33.9233C27.5059 33.9233 27.1793 34.0133 26.8859 34.1933C26.5993 34.3733 26.3693 34.6167 26.1959 34.9233C26.0226 35.23 25.9359 35.5767 25.9359 35.9633C25.9359 36.35 26.0226 36.7 26.1959 37.0133C26.3693 37.3267 26.5993 37.5733 26.8859 37.7533C27.1793 37.9333 27.5059 38.0233 27.8659 38.0233ZM33.8087 38.7733C33.4353 38.7733 33.0953 38.6867 32.7887 38.5133C32.482 38.3333 32.2387 38.0867 32.0587 37.7733C31.8853 37.4533 31.7987 37.0867 31.7987 36.6733V33.2933H32.5487V36.5833C32.5487 36.87 32.6053 37.1233 32.7187 37.3433C32.8387 37.5567 33.002 37.7233 33.2087 37.8433C33.422 37.9633 33.6653 38.0233 33.9387 38.0233C34.212 38.0233 34.4553 37.9633 34.6687 37.8433C34.882 37.7167 35.0487 37.54 35.1687 37.3133C35.2887 37.08 35.3487 36.8033 35.3487 36.4833V33.2933H36.0987V38.6533H35.3487V37.6133L35.5187 37.6533C35.392 38 35.1753 38.2733 34.8687 38.4733C34.562 38.6733 34.2087 38.7733 33.8087 38.7733ZM37.6411 38.6533V33.2933H38.3911V34.1733L38.2911 34.0433C38.4178 33.79 38.6078 33.59 38.8611 33.4433C39.1211 33.2967 39.4344 33.2233 39.8011 33.2233H40.1411V33.9733H39.6711C39.2844 33.9733 38.9744 34.0933 38.7411 34.3333C38.5078 34.5733 38.3911 34.9133 38.3911 35.3533V38.6533H37.6411ZM42.88 38.7733C42.3667 38.7733 41.9167 38.6433 41.53 38.3833C41.1433 38.1233 40.8633 37.77 40.69 37.3233L41.32 37.0233C41.4733 37.35 41.6867 37.61 41.96 37.8033C42.24 37.9967 42.5467 38.0933 42.88 38.0933C43.2 38.0933 43.47 38.0167 43.69 37.8633C43.91 37.7033 44.02 37.4967 44.02 37.2433C44.02 37.0567 43.9667 36.91 43.86 36.8033C43.7533 36.69 43.63 36.6033 43.49 36.5433C43.35 36.4833 43.2267 36.44 43.12 36.4133L42.35 36.1933C41.8567 36.0533 41.5 35.8567 41.28 35.6033C41.06 35.35 40.95 35.0567 40.95 34.7233C40.95 34.41 41.03 34.1367 41.19 33.9033C41.35 33.67 41.5667 33.49 41.84 33.3633C42.1133 33.2367 42.4167 33.1733 42.75 33.1733C43.2033 33.1733 43.6133 33.2933 43.98 33.5333C44.3533 33.7667 44.6167 34.0933 44.77 34.5133L44.13 34.8133C43.9967 34.5133 43.8033 34.28 43.55 34.1133C43.3033 33.94 43.0267 33.8533 42.72 33.8533C42.42 33.8533 42.18 33.93 42 34.0833C41.82 34.2367 41.73 34.43 41.73 34.6633C41.73 34.8433 41.7767 34.9867 41.87 35.0933C41.9633 35.2 42.07 35.28 42.19 35.3333C42.3167 35.3867 42.4267 35.4267 42.52 35.4533L43.41 35.7133C43.8433 35.84 44.18 36.0367 44.42 36.3033C44.6667 36.57 44.79 36.8833 44.79 37.2433C44.79 37.5367 44.7067 37.8 44.54 38.0333C44.38 38.2667 44.1567 38.45 43.87 38.5833C43.5833 38.71 43.2533 38.7733 42.88 38.7733Z" fill="white"/>
</svg>
