<svg width="52" height="52" viewBox="0 0 52 52" fill="none" xmlns="http://www.w3.org/2000/svg">
<rect width="52" height="52" rx="26" fill="#C2CDEF"/>
<path d="M11.27 30V22.55H14.41C14.8767 22.55 15.28 22.6333 15.62 22.8C15.96 22.96 16.22 23.1933 16.4 23.5C16.58 23.8 16.67 24.1567 16.67 24.57C16.67 24.93 16.5767 25.26 16.39 25.56C16.21 25.8533 15.9267 26.0867 15.54 26.26V25.76C15.88 25.8933 16.1567 26.0633 16.37 26.27C16.5833 26.47 16.7367 26.6967 16.83 26.95C16.93 27.2033 16.98 27.47 16.98 27.75C16.98 28.45 16.75 29 16.29 29.4C15.8367 29.8 15.2133 30 14.42 30H11.27ZM12.45 28.95H14.51C14.9033 28.95 15.2167 28.8433 15.45 28.63C15.6833 28.41 15.8 28.12 15.8 27.76C15.8 27.3933 15.6833 27.1033 15.45 26.89C15.2167 26.67 14.9033 26.56 14.51 26.56H12.45V28.95ZM12.45 25.52H14.44C14.76 25.52 15.0167 25.43 15.21 25.25C15.4033 25.0633 15.5 24.82 15.5 24.52C15.5 24.22 15.4033 23.9867 15.21 23.82C15.0167 23.6533 14.76 23.57 14.44 23.57H12.45V25.52ZM18.1938 30V22.55H19.3738V28.95H22.5938V30H18.1938ZM27.0091 30.12C26.4691 30.12 25.9658 30.0233 25.4991 29.83C25.0391 29.6367 24.6325 29.3667 24.2791 29.02C23.9325 28.6733 23.6591 28.2667 23.4591 27.8C23.2658 27.3333 23.1691 26.8233 23.1691 26.27C23.1691 25.7167 23.2658 25.2067 23.4591 24.74C23.6591 24.2667 23.9325 23.86 24.2791 23.52C24.6258 23.1733 25.0325 22.9067 25.4991 22.72C25.9658 22.5267 26.4691 22.43 27.0091 22.43C27.5558 22.43 28.0591 22.5267 28.5191 22.72C28.9858 22.9067 29.3925 23.1733 29.7391 23.52C30.0925 23.8667 30.3658 24.2733 30.5591 24.74C30.7525 25.2067 30.8491 25.7167 30.8491 26.27C30.8491 26.8233 30.7491 27.3333 30.5491 27.8C30.3558 28.2667 30.0858 28.6733 29.7391 29.02C29.3925 29.3667 28.9858 29.6367 28.5191 29.83C28.0525 30.0233 27.5491 30.12 27.0091 30.12ZM27.0091 29.04C27.3958 29.04 27.7491 28.97 28.0691 28.83C28.3958 28.69 28.6791 28.4967 28.9191 28.25C29.1591 27.9967 29.3458 27.7033 29.4791 27.37C29.6125 27.03 29.6791 26.6633 29.6791 26.27C29.6791 25.8767 29.6125 25.5133 29.4791 25.18C29.3458 24.8467 29.1591 24.5533 28.9191 24.3C28.6791 24.0467 28.3958 23.85 28.0691 23.71C27.7491 23.57 27.3958 23.5 27.0091 23.5C26.6225 23.5 26.2658 23.57 25.9391 23.71C25.6191 23.85 25.3391 24.0467 25.0991 24.3C24.8591 24.5533 24.6725 24.8467 24.5391 25.18C24.4125 25.5133 24.3491 25.8767 24.3491 26.27C24.3491 26.6633 24.4125 27.03 24.5391 27.37C24.6725 27.7033 24.8591 27.9967 25.0991 28.25C25.3391 28.4967 25.6225 28.69 25.9491 28.83C26.2758 28.97 26.6291 29.04 27.0091 29.04ZM33.3631 30L31.3131 22.55H32.5631L34.2231 29H33.9131L35.6331 22.55H36.8631L38.5831 29H38.2631L39.9331 22.55H41.1731L39.1331 30H37.8031L36.0731 23.65H36.4231L34.6831 30H33.3631Z" fill="#3653B0"/>
</svg>
