<svg width="12" height="13" viewBox="0 0 12 13" fill="none" xmlns="http://www.w3.org/2000/svg">
<path d="M4.5 5.5H3.5V6.5H4.5V5.5ZM6.5 5.5H5.5V6.5H6.5V5.5ZM8.5 5.5H7.5V6.5H8.5V5.5ZM9.5 2H9V1H8V2H4V1H3V2H2.5C1.945 2 1.5 2.45 1.5 3V10C1.5 10.2652 1.60536 10.5196 1.79289 10.7071C1.98043 10.8946 2.23478 11 2.5 11H9.5C9.76522 11 10.0196 10.8946 10.2071 10.7071C10.3946 10.5196 10.5 10.2652 10.5 10V3C10.5 2.73478 10.3946 2.48043 10.2071 2.29289C10.0196 2.10536 9.76522 2 9.5 2ZM9.5 10H2.5V4.5H9.5V10Z" fill="#828282"/>
</svg>
