<svg width="44" height="44" viewBox="0 0 44 44" fill="none" xmlns="http://www.w3.org/2000/svg">
<rect x="0.5" y="0.5" width="43" height="43" rx="21.5" stroke="#3653B0"/>
<g clip-path="url(#clip0_4026_6852)">
<path d="M17 28C15.9 28 15.01 28.9 15.01 30C15.01 31.1 15.9 32 17 32C18.1 32 19 31.1 19 30C19 28.9 18.1 28 17 28ZM11 13C11 13.55 11.45 14 12 14H13L16.6 21.59L15.25 24.03C14.52 25.37 15.48 27 17 27H28C28.55 27 29 26.55 29 26C29 25.45 28.55 25 28 25H17L18.1 23H25.55C26.3 23 26.96 22.59 27.3 21.97L30.88 15.48C31.25 14.82 30.77 14 30.01 14H15.21L14.54 12.57C14.38 12.22 14.02 12 13.64 12H12C11.45 12 11 12.45 11 13ZM27 28C25.9 28 25.01 28.9 25.01 30C25.01 31.1 25.9 32 27 32C28.1 32 29 31.1 29 30C29 28.9 28.1 28 27 28Z" fill="#3653B0"/>
</g>
<defs>
<clipPath id="clip0_4026_6852">
<rect width="24" height="24" fill="white" transform="translate(10 10)"/>
</clipPath>
</defs>
</svg>
