<svg width="52" height="52" viewBox="0 0 52 52" fill="none" xmlns="http://www.w3.org/2000/svg">
<rect width="52" height="52" rx="26" fill="#013226"/>
<path d="M21.75 30.12C21.2167 30.12 20.7233 30.0233 20.27 29.83C19.8167 29.6367 19.42 29.3667 19.08 29.02C18.74 28.6733 18.4733 28.2667 18.28 27.8C18.0933 27.3333 18 26.8233 18 26.27C18 25.7167 18.09 25.2067 18.27 24.74C18.4567 24.2667 18.7167 23.86 19.05 23.52C19.39 23.1733 19.7867 22.9067 20.24 22.72C20.6933 22.5267 21.1867 22.43 21.72 22.43C22.2533 22.43 22.73 22.52 23.15 22.7C23.5767 22.88 23.9367 23.12 24.23 23.42C24.5233 23.7133 24.7333 24.0367 24.86 24.39L23.65 24.97C23.51 24.5833 23.2733 24.27 22.94 24.03C22.6067 23.79 22.2 23.67 21.72 23.67C21.2533 23.67 20.84 23.78 20.48 24C20.1267 24.22 19.85 24.5233 19.65 24.91C19.4567 25.2967 19.36 25.75 19.36 26.27C19.36 26.79 19.46 27.2467 19.66 27.64C19.8667 28.0267 20.15 28.33 20.51 28.55C20.87 28.77 21.2833 28.88 21.75 28.88C22.13 28.88 22.48 28.8067 22.8 28.66C23.12 28.5067 23.3767 28.2933 23.57 28.02C23.7633 27.74 23.86 27.41 23.86 27.03V26.46L24.48 27H21.72V25.85H25.22V26.6C25.22 27.1733 25.1233 27.68 24.93 28.12C24.7367 28.56 24.4733 28.93 24.14 29.23C23.8133 29.5233 23.4433 29.7467 23.03 29.9C22.6167 30.0467 22.19 30.12 21.75 30.12ZM29.8262 30.12C29.2928 30.12 28.7995 30.0233 28.3462 29.83C27.8928 29.6367 27.4962 29.3667 27.1562 29.02C26.8162 28.6733 26.5495 28.2667 26.3562 27.8C26.1695 27.3333 26.0762 26.8233 26.0762 26.27C26.0762 25.7167 26.1662 25.2067 26.3462 24.74C26.5328 24.2667 26.7928 23.86 27.1262 23.52C27.4662 23.1733 27.8628 22.9067 28.3162 22.72C28.7695 22.5267 29.2628 22.43 29.7962 22.43C30.3295 22.43 30.8062 22.52 31.2262 22.7C31.6528 22.88 32.0128 23.12 32.3062 23.42C32.5995 23.7133 32.8095 24.0367 32.9362 24.39L31.7262 24.97C31.5862 24.5833 31.3495 24.27 31.0162 24.03C30.6828 23.79 30.2762 23.67 29.7962 23.67C29.3295 23.67 28.9162 23.78 28.5562 24C28.2028 24.22 27.9262 24.5233 27.7262 24.91C27.5328 25.2967 27.4362 25.75 27.4362 26.27C27.4362 26.79 27.5362 27.2467 27.7362 27.64C27.9428 28.0267 28.2262 28.33 28.5862 28.55C28.9462 28.77 29.3595 28.88 29.8262 28.88C30.2062 28.88 30.5562 28.8067 30.8762 28.66C31.1962 28.5067 31.4528 28.2933 31.6462 28.02C31.8395 27.74 31.9362 27.41 31.9362 27.03V26.46L32.5562 27H29.7962V25.85H33.2962V26.6C33.2962 27.1733 33.1995 27.68 33.0062 28.12C32.8128 28.56 32.5495 28.93 32.2162 29.23C31.8895 29.5233 31.5195 29.7467 31.1062 29.9C30.6928 30.0467 30.2662 30.12 29.8262 30.12Z" fill="white"/>
</svg>
