<svg width="26" height="24" viewBox="0 0 26 24" fill="none" xmlns="http://www.w3.org/2000/svg">
<g id="Group">
<g id="Group_2">
<path id="Vector" d="M25.2328 8.1125L23.9354 2.65C23.6636 1.525 22.6998 0.75 21.5754 0.75H4.41244C3.30037 0.75 2.32422 1.5375 2.06474 2.65L0.767325 8.1125C0.470774 9.3875 0.742613 10.6875 1.53342 11.7125C1.63227 11.85 1.76819 11.95 1.87939 12.075V20.75C1.87939 22.125 2.99146 23.25 4.35066 23.25H21.6495C23.0087 23.25 24.1208 22.125 24.1208 20.75V12.075C24.232 11.9625 24.3679 11.85 24.4668 11.725C25.2576 10.7 25.5418 9.3875 25.2328 8.1125ZM21.5383 3.2375L22.8357 8.7C22.9593 9.225 22.8481 9.75 22.5268 10.1625C22.3538 10.3875 21.9831 10.75 21.3653 10.75C20.6116 10.75 19.9567 10.1375 19.8702 9.325L19.1535 3.25L21.5383 3.2375ZM14.2357 3.25H16.6576L17.3248 8.9C17.3866 9.3875 17.2383 9.875 16.917 10.2375C16.6452 10.5625 16.2498 10.75 15.7432 10.75C14.9153 10.75 14.2357 10.0125 14.2357 9.1125V3.25ZM8.66301 8.9L9.34261 3.25H11.7645V9.1125C11.7645 10.0125 11.0849 10.75 10.1705 10.75C9.75037 10.75 9.36732 10.5625 9.07077 10.2375C8.76187 9.875 8.61359 9.3875 8.66301 8.9ZM3.16445 8.7L4.41244 3.25H6.84664L6.12997 9.325C6.03112 10.1375 5.38859 10.75 4.63485 10.75C4.02939 10.75 3.64635 10.3875 3.48572 10.1625C3.1521 9.7625 3.04089 9.225 3.16445 8.7ZM4.35066 20.75V13.2125C4.44951 13.225 4.536 13.25 4.63485 13.25C5.70985 13.25 6.686 12.8 7.40267 12.0625C8.14405 12.8125 9.13256 13.25 10.257 13.25C11.332 13.25 12.2958 12.8 13.0124 12.0875C13.7415 12.8 14.73 13.25 15.842 13.25C16.88 13.25 17.8685 12.8125 18.6099 12.0625C19.3265 12.8 20.3027 13.25 21.3777 13.25C21.4765 13.25 21.563 13.225 21.6619 13.2125V20.75H4.35066Z" fill="#B3B3B3"/>
</g>
</g>
</svg>
