<svg width="30" height="30" viewBox="0 0 30 30" fill="none" xmlns="http://www.w3.org/2000/svg">
<g id="home" clip-path="url(#clip0_3497_302)">
<path id="Vector" d="M12.4998 23.7504V17.5004H17.4998V23.7504C17.4998 24.4379 18.0623 25.0004 18.7498 25.0004H22.4998C23.1873 25.0004 23.7498 24.4379 23.7498 23.7504V15.0004H25.8748C26.4498 15.0004 26.7248 14.2879 26.2873 13.9129L15.8373 4.50039C15.3623 4.07539 14.6373 4.07539 14.1623 4.50039L3.71226 13.9129C3.28726 14.2879 3.54976 15.0004 4.12476 15.0004H6.24976V23.7504C6.24976 24.4379 6.81226 25.0004 7.49976 25.0004H11.2498C11.9373 25.0004 12.4998 24.4379 12.4998 23.7504Z" fill="#3653B0"/>
</g>
<defs>
<clipPath id="clip0_3497_302">
<rect width="30" height="30" fill="white"/>
</clipPath>
</defs>
</svg>
