<svg width="16" height="16" viewBox="0 0 16 16" fill="none" xmlns="http://www.w3.org/2000/svg">
<g clip-path="url(#clip0_4337_56386)">
<path d="M12.6667 3.99984H11.3333C11.3333 2.15984 9.84 0.666504 8 0.666504C6.16 0.666504 4.66667 2.15984 4.66667 3.99984H3.33333C2.6 3.99984 2 4.59984 2 5.33317V13.3332C2 14.0665 2.6 14.6665 3.33333 14.6665H12.6667C13.4 14.6665 14 14.0665 14 13.3332V5.33317C14 4.59984 13.4 3.99984 12.6667 3.99984ZM8 1.99984C9.10667 1.99984 10 2.89317 10 3.99984H6C6 2.89317 6.89333 1.99984 8 1.99984ZM8 8.6665C6.44667 8.6665 5.14 7.6065 4.77333 6.1665C4.66 5.7465 4.98667 5.33317 5.42 5.33317C5.73333 5.33317 5.98667 5.55984 6.07333 5.8665C6.30667 6.71317 7.08 7.33317 8 7.33317C8.92 7.33317 9.69333 6.71317 9.92667 5.8665C10.0133 5.55984 10.2667 5.33317 10.58 5.33317C11.0133 5.33317 11.3333 5.7465 11.2267 6.1665C10.86 7.6065 9.55333 8.6665 8 8.6665Z" fill="#3653B0"/>
</g>
<defs>
<clipPath id="clip0_4337_56386">
<rect width="16" height="16" fill="white"/>
</clipPath>
</defs>
</svg>
