<svg width="12" height="13" viewBox="0 0 12 13" fill="none" xmlns="http://www.w3.org/2000/svg">
<g clip-path="url(#clip0_4337_56358)">
<path d="M6 1.5C4.065 1.5 2.5 3.065 2.5 5C2.5 7.085 4.71 9.96 5.62 11.055C5.82 11.295 6.185 11.295 6.385 11.055C7.29 9.96 9.5 7.085 9.5 5C9.5 3.065 7.935 1.5 6 1.5ZM6 6.25C5.31 6.25 4.75 5.69 4.75 5C4.75 4.31 5.31 3.75 6 3.75C6.69 3.75 7.25 4.31 7.25 5C7.25 5.69 6.69 6.25 6 6.25Z" fill="#828282"/>
</g>
<defs>
<clipPath id="clip0_4337_56358">
<rect width="12" height="12" fill="white" transform="translate(0 0.5)"/>
</clipPath>
</defs>
</svg>
