<svg width="16" height="16" viewBox="0 0 16 16" fill="none" xmlns="http://www.w3.org/2000/svg">
<g clip-path="url(#clip0_4337_56374)">
<path d="M13.3335 7.99984C13.3335 7.49317 13.6202 7.05317 14.0402 6.8265C14.4402 6.6065 14.6668 6.15317 14.6668 5.69317V3.99984C14.6668 3.2665 14.0668 2.6665 13.3335 2.6665H2.66683C1.9335 2.6665 1.34016 3.25984 1.34016 3.99317V5.69317C1.34016 6.15317 1.56016 6.6065 1.96683 6.81984C2.38683 7.05317 2.66683 7.49317 2.66683 7.99984C2.66683 8.5065 2.38016 8.95317 1.96016 9.17317C1.56016 9.39317 1.3335 9.8465 1.3335 10.3065V11.9998C1.3335 12.7332 1.9335 13.3332 2.66683 13.3332H13.3335C14.0668 13.3332 14.6668 12.7332 14.6668 11.9998V10.3065C14.6668 9.8465 14.4402 9.39317 14.0402 9.17317C13.6202 8.9465 13.3335 8.5065 13.3335 7.99984ZM9.66683 10.7332L8.00016 9.6665L6.3335 10.7398C6.08016 10.8998 5.7535 10.6665 5.8335 10.3732L6.3335 8.45317L4.80016 7.19984C4.56683 7.0065 4.68683 6.6265 4.9935 6.6065L6.96683 6.49317L7.68683 4.65984C7.80016 4.37984 8.20016 4.37984 8.30683 4.65984L9.02683 6.49984L11.0002 6.61317C11.3002 6.63317 11.4268 7.01317 11.1935 7.2065L9.66016 8.45984L10.1668 10.3665C10.2468 10.6665 9.92016 10.8998 9.66683 10.7332Z" fill="#3653B0"/>
</g>
<defs>
<clipPath id="clip0_4337_56374">
<rect width="16" height="16" fill="white"/>
</clipPath>
</defs>
</svg>
