<svg width="32" height="32" viewBox="0 0 32 32" fill="none" xmlns="http://www.w3.org/2000/svg">
<circle cx="16" cy="16" r="16" fill="white"/>
<g clip-path="url(#clip0_2619_37318)">
<path d="M11 22C9.9 22 9.01 22.9 9.01 24C9.01 25.1 9.9 26 11 26C12.1 26 13 25.1 13 24C13 22.9 12.1 22 11 22ZM5 7C5 7.55 5.45 8 6 8H7L10.6 15.59L9.25 18.03C8.52 19.37 9.48 21 11 21H22C22.55 21 23 20.55 23 20C23 19.45 22.55 19 22 19H11L12.1 17H19.55C20.3 17 20.96 16.59 21.3 15.97L24.88 9.48C25.25 8.82 24.77 8 24.01 8H9.21L8.54 6.57C8.38 6.22 8.02 6 7.64 6H6C5.45 6 5 6.45 5 7ZM21 22C19.9 22 19.01 22.9 19.01 24C19.01 25.1 19.9 26 21 26C22.1 26 23 25.1 23 24C23 22.9 22.1 22 21 22Z" fill="#999999"/>
</g>
<defs>
<clipPath id="clip0_2619_37318">
<rect width="24" height="24" fill="white" transform="translate(4 4)"/>
</clipPath>
</defs>
</svg>
