<svg width="33" height="32" viewBox="0 0 33 32" fill="none" xmlns="http://www.w3.org/2000/svg">
<rect x="0.282227" width="32" height="32" rx="16" fill="#026C52"/>
<path d="M12.8175 9.32282C12.5421 9.51373 12.3127 9.77058 12.1478 10.0726C11.983 10.3747 11.8873 10.7136 11.8684 11.062V13.0427C11.8873 13.3912 11.983 13.7301 12.1478 14.0321C12.3127 14.3342 12.5421 14.591 12.8175 14.7819L14.7814 16.0096C15.3022 16.3288 15.7304 16.0669 15.7304 15.4285V8.71716C15.7304 8.07877 15.3022 7.81689 14.7814 8.13608L12.8175 9.32282Z" fill="white"/>
<path d="M12.613 15.2115C12.3278 15.0609 12.0128 14.9824 11.6932 14.9824C11.3737 14.9824 11.0586 15.0609 10.7735 15.2115L9.20382 16.1507C8.93635 16.3333 8.71362 16.5789 8.55354 16.8677C8.39348 17.1566 8.30054 17.4807 8.28223 17.8139V20.1149C8.28223 20.7254 8.69809 20.9759 9.20382 20.6707L14.5236 17.4617C15.0293 17.1565 15.0293 16.6595 14.5236 16.3542L12.613 15.2115Z" fill="white"/>
<path d="M19.7471 9.32282C20.0225 9.51373 20.2519 9.77058 20.4167 10.0726C20.5816 10.3747 20.6773 10.7136 20.6961 11.062V13.0427C20.6773 13.3912 20.5816 13.7301 20.4167 14.0321C20.2519 14.3342 20.0225 14.591 19.7471 14.7819L17.7794 16.0096C17.2585 16.3288 16.8341 16.0669 16.8341 15.4285V8.71716C16.8341 8.07877 17.2585 7.81689 17.7794 8.13608L19.7471 9.32282Z" fill="white"/>
<path d="M19.7724 15.2115C20.0696 15.0609 20.398 14.9824 20.731 14.9824C21.064 14.9824 21.3924 15.0609 21.6896 15.2115L23.3256 16.1507C23.6039 16.3335 23.8355 16.5792 24.0016 16.8681C24.1678 17.157 24.2639 17.481 24.2822 17.8139V20.1149C24.2822 20.7254 23.8527 20.9759 23.3256 20.6707L17.7811 17.4617C17.254 17.1565 17.254 16.6595 17.7811 16.3542L19.7724 15.2115Z" fill="white"/>
<path d="M11.6767 23.7712C11.962 23.9216 12.2773 24 12.597 24C12.9167 24 13.2319 23.9216 13.5172 23.7712L15.0878 22.8293C15.355 22.646 15.5773 22.3999 15.7368 22.1107C15.8963 21.8216 15.9885 21.4975 16.0061 21.1645V18.8665C16.0061 18.2569 15.5938 18.0068 15.0878 18.3116L9.76503 21.5162C9.25899 21.8211 9.25899 22.3174 9.76503 22.6222L11.6767 23.7712Z" fill="white"/>
<path d="M16.2822 21.1664C16.3009 21.4986 16.3971 21.8218 16.5633 22.11C16.7294 22.3983 16.9608 22.6436 17.2389 22.8262L18.8749 23.7713C19.1721 23.9217 19.5004 24 19.8335 24C20.1665 24 20.4949 23.9217 20.792 23.7713L22.7834 22.6192C23.3105 22.3146 23.3105 21.8186 22.7834 21.514L17.2389 18.3115C16.7117 18.0069 16.2822 18.2568 16.2822 18.8661V21.1664Z" fill="white"/>
</svg>
